# xmcd
#
# Track frame offsets:
#	150
#	16506
#	29041
#	42395
#	61987
#	75544
#
# Disc length: 1210 seconds
#
# Revision: 0
# Processed by: cddbd v1.5.2PL0 Copyright (c) Steve Scherf et al.
# Submitted via: EZCDAudioConverter 1.3.3.1
#
DISCID=4004b806
DTITLE=Vera, Danny - The New Black and White
DYEAR=2015
DGENRE=blues
TTITLE0=Expandable Time
TTITLE1=Russian Roulette
TTITLE2=Leavin'
TTITLE3=Best Days of My Life
TTITLE4=Too Much Love Will Kill You
TTITLE5=In Every Way
EXTD=
EXTT0=
EXTT1=
EXTT2=
EXTT3=
EXTT4=
EXTT5=
PLAYORDER=
